<svg xmlns="http://www.w3.org/2000/svg" xmlns:xlink="http://www.w3.org/1999/xlink" width="500" zoomAndPan="magnify" viewBox="0 0 375 374.999991" height="500" preserveAspectRatio="xMidYMid meet" version="1.0"><defs><g/><clipPath id="id1"><path d="M 56.523438 38 L 318 38 L 318 283 L 56.523438 283 Z M 56.523438 38 " clip-rule="nonzero"/></clipPath></defs><rect x="-37.5" width="450" fill="#ffffff" y="-37.499999" height="449.999989" fill-opacity="1"/><rect x="-37.5" width="450" fill="#ffffff" y="-37.499999" height="449.999989" fill-opacity="1"/><rect x="-37.5" width="450" fill="#ffffff" y="-37.499999" height="449.999989" fill-opacity="1"/><rect x="-37.5" width="450" fill="#ffffff" y="-37.499999" height="449.999989" fill-opacity="1"/><g clip-path="url(#id1)"><path fill="#333632" d="M 177.550781 159.9375 C 177.070312 141.335938 185.398438 130.910156 194.683594 119.363281 C 207.648438 103.328125 222.378906 85.042969 220.617188 41.742188 L 220.457031 38.375 L 217.09375 39.015625 C 195.804688 43.1875 176.113281 55.375 162.984375 76.222656 C 154.019531 90.335938 148.253906 108.617188 146.976562 130.910156 C 146.496094 130.109375 146.015625 129.46875 145.535156 128.824219 C 143.453125 126.261719 140.890625 124.175781 138.007812 122.570312 C 135.128906 121.128906 131.925781 120.164062 128.5625 119.84375 C 125.203125 119.523438 122 120.003906 118.957031 120.96875 C 107.273438 124.976562 109.671875 128.023438 92.703125 129.628906 C 79.257812 130.910156 63.246094 130.589844 56.523438 130.910156 C 71.890625 132.996094 86.621094 134.277344 99.90625 140.535156 C 107.113281 143.902344 111.433594 148.550781 112.714844 154.164062 C 116.078125 175.816406 126.644531 207.890625 146.976562 219.117188 C 160.101562 226.332031 173.871094 222.484375 193.082031 223.125 C 199.644531 233.390625 207.648438 242.851562 216.453125 251.191406 C 230.0625 263.859375 246.230469 274.125 264 281.019531 L 269.285156 282.945312 L 267.84375 277.492188 C 262.5625 256.164062 249.113281 239.003906 231.664062 228.578125 C 221.097656 222.164062 209.089844 218.316406 196.441406 217.351562 C 194.683594 214.625 193.082031 211.738281 191.640625 208.851562 C 214.054688 213.824219 241.429688 207.890625 264.800781 197.144531 C 290.417969 185.277344 311.710938 167.316406 317.152344 150.957031 L 317.152344 150.796875 L 317.953125 148.230469 L 315.550781 147.109375 C 265.121094 125.296875 221.898438 142.617188 191.800781 154.644531 C 186.515625 156.730469 181.714844 158.65625 177.390625 160.097656 Z M 177.550781 159.9375 " fill-opacity="1" fill-rule="nonzero"/></g><path fill="#96dbe7" d="M 200.605469 223.605469 C 210.691406 224.890625 220.296875 228.417969 228.78125 233.550781 C 243.351562 242.371094 254.875 256.003906 260.640625 273.164062 C 245.75 266.746094 232.304688 257.765625 220.617188 246.863281 C 213.09375 239.804688 206.367188 232.105469 200.605469 223.605469 Z M 146.976562 147.589844 C 146.976562 148.390625 146.976562 149.035156 147.136719 149.835938 C 148.253906 165.230469 152.097656 177.257812 158.179688 186.398438 C 164.746094 196.183594 173.710938 202.757812 184.117188 206.445312 C 185.878906 209.976562 187.636719 213.503906 189.71875 217.03125 C 173.070312 217.351562 160.742188 218.796875 149.695312 212.703125 C 130.804688 202.277344 121.679688 173.25 118.636719 153.203125 L 118.636719 153.042969 C 116.878906 145.34375 111.59375 139.410156 102.46875 135.082031 C 102.308594 134.921875 102.148438 134.921875 101.988281 134.761719 C 110.632812 133.15625 114.15625 128.503906 120.878906 126.261719 C 123.28125 125.457031 125.683594 125.136719 128.242188 125.457031 C 130.804688 125.617188 133.207031 126.421875 135.289062 127.542969 C 137.53125 128.664062 139.449219 130.269531 141.050781 132.195312 C 142.972656 134.761719 144.414062 137.484375 145.535156 140.371094 C 146.335938 142.617188 146.816406 145.023438 146.976562 147.429688 Z M 146.976562 147.589844 " fill-opacity="1" fill-rule="nonzero"/><path fill="#5271ff" d="M 162.984375 183.351562 C 159.941406 178.863281 157.539062 173.570312 155.78125 167.316406 C 156.101562 167.476562 156.261719 167.636719 156.582031 167.636719 C 161.542969 169.882812 167.945312 169.078125 175.792969 166.675781 C 181.234375 165.070312 187.316406 162.503906 194.203125 159.777344 C 222.859375 148.390625 263.84375 131.875 310.910156 151.117188 C 304.824219 165.390625 285.613281 180.949219 262.402344 191.53125 C 237.90625 202.757812 209.410156 208.53125 187.476562 201.476562 L 187.15625 201.316406 C 177.390625 198.109375 169.066406 192.175781 162.984375 183.191406 Z M 190.199219 115.675781 C 179.792969 128.503906 170.667969 140.050781 171.789062 161.863281 C 166.347656 163.304688 162.023438 163.789062 158.980469 162.34375 C 155.78125 160.902344 153.699219 157.050781 152.898438 149.675781 C 152.898438 149.035156 152.898438 148.230469 152.898438 147.589844 C 151.777344 118.5625 157.699219 96.109375 168.105469 79.429688 C 179.632812 61.148438 196.441406 49.921875 215.015625 45.59375 C 215.652344 84.242188 202.207031 101.082031 190.199219 115.835938 Z M 190.199219 115.675781 " fill-opacity="1" fill-rule="nonzero"/><path fill="#ffffff" d="M 207.648438 204.683594 C 245.109375 200.671875 279.691406 182.390625 304.34375 153.84375 C 271.367188 143.097656 235.824219 144.0625 203.488281 156.25 C 231.34375 145.503906 268.644531 134.117188 310.910156 151.277344 C 304.824219 165.550781 285.613281 181.109375 262.402344 191.691406 C 244.949219 199.710938 225.417969 205.003906 207.648438 204.683594 Z M 207.648438 204.683594 " fill-opacity="1" fill-rule="evenodd"/><path fill="#ffffff" d="M 173.390625 144.222656 C 182.515625 107.175781 211.332031 96.910156 211.652344 48.640625 C 207.648438 49.28125 203.648438 49.921875 199.644531 50.722656 C 204.609375 48.320312 209.730469 46.554688 215.015625 45.269531 C 215.652344 83.921875 202.207031 100.761719 190.199219 115.515625 C 182.996094 124.496094 176.433594 132.675781 173.390625 144.0625 Z M 173.390625 144.222656 " fill-opacity="1" fill-rule="evenodd"/><path fill="#ffffff" d="M 114.316406 129.628906 C 116.238281 128.503906 118.320312 127.382812 120.71875 126.421875 C 123.121094 125.617188 125.523438 125.296875 128.085938 125.617188 C 130.644531 125.777344 133.046875 126.582031 135.128906 127.703125 C 137.371094 128.824219 139.289062 130.429688 140.890625 132.355469 C 142.8125 134.921875 144.253906 137.648438 145.375 140.535156 C 146.175781 142.777344 146.65625 145.183594 146.816406 147.589844 C 146.816406 148.390625 146.816406 149.035156 146.976562 149.835938 C 148.09375 165.230469 151.9375 177.257812 158.019531 186.398438 C 160.742188 190.410156 163.785156 193.9375 167.144531 196.824219 C 128.722656 174.851562 157.539062 117.601562 114.15625 129.46875 Z M 252.796875 269.472656 C 244.46875 246.378906 224.78125 229.058594 200.605469 223.605469 C 210.691406 224.890625 220.296875 228.417969 228.78125 233.550781 C 243.351562 242.371094 254.875 256.003906 260.640625 273.164062 C 257.917969 272.039062 255.355469 270.757812 252.796875 269.472656 Z M 252.796875 269.472656 " fill-opacity="1" fill-rule="evenodd"/><g fill="#333632" fill-opacity="1"><g transform="translate(116.275238, 329.70488)"><g><path d="M 1.390625 0 L 1.390625 -25.550781 L 4.691406 -25.550781 C 6.917969 -25.550781 8.65625 -25.136719 9.804688 -24.058594 C 10.949219 -22.980469 11.542969 -21.3125 11.542969 -18.773438 C 11.542969 -17.554688 11.4375 -16.652344 11.054688 -15.816406 C 10.671875 -14.984375 10.082031 -14.289062 9.210938 -13.488281 C 10.152344 -12.96875 10.847656 -11.992188 11.402344 -10.359375 C 11.679688 -9.558594 11.820312 -8.515625 11.820312 -7.230469 C 11.820312 -5.320312 11.472656 -3.617188 10.601562 -2.292969 C 9.734375 -0.972656 8.238281 -0.105469 6.015625 0 Z M 5.144531 -15.019531 C 5.457031 -15.019531 6.1875 -14.984375 6.8125 -15.402344 C 7.441406 -15.816406 7.925781 -16.652344 7.925781 -18.425781 C 7.925781 -20.199219 7.441406 -21.03125 6.8125 -21.449219 C 6.1875 -21.867188 5.457031 -21.832031 5.144531 -21.832031 Z M 5.144531 -3.71875 C 5.457031 -3.71875 6.1875 -3.648438 6.8125 -4.101562 C 7.441406 -4.554688 7.925781 -5.5625 7.925781 -7.648438 C 7.925781 -9.734375 7.441406 -10.742188 6.8125 -11.195312 C 6.1875 -11.644531 5.457031 -11.578125 5.144531 -11.578125 Z M 5.144531 -3.71875 "/></g></g></g><g fill="#333632" fill-opacity="1"><g transform="translate(133.795872, 329.70488)"><g><path d="M 1.390625 -25.550781 L 5.144531 -25.550781 L 5.144531 -3.476562 L 10.117188 -3.476562 L 10.117188 0 L 1.390625 0 Z M 1.390625 -25.550781 "/></g></g></g><g fill="#333632" fill-opacity="1"><g transform="translate(148.91795, 329.70488)"><g><path d="M 11.367188 -25.550781 L 11.367188 -5.25 C 11.332031 -4.207031 11.125 -3.269531 10.742188 -2.46875 C 10.429688 -1.773438 9.941406 -1.113281 9.246094 -0.589844 C 8.550781 -0.0351562 7.613281 0.277344 6.363281 0.277344 C 5.109375 0.277344 4.136719 -0.0351562 3.441406 -0.589844 C 2.746094 -1.113281 2.292969 -1.773438 1.980469 -2.46875 C 1.597656 -3.269531 1.390625 -4.207031 1.355469 -5.25 L 1.355469 -25.550781 L 5.109375 -25.550781 L 5.109375 -5.25 C 5.109375 -4.519531 5.285156 -4.03125 5.632812 -3.648438 C 5.804688 -3.476562 6.050781 -3.371094 6.363281 -3.371094 C 7.023438 -3.371094 7.335938 -3.789062 7.472656 -4.3125 C 7.578125 -4.554688 7.613281 -4.867188 7.613281 -5.25 L 7.613281 -25.550781 Z M 11.367188 -25.550781 "/></g></g></g><g fill="#333632" fill-opacity="1"><g transform="translate(166.508108, 329.70488)"><g><path d="M 1.390625 -25.550781 L 9.976562 -25.550781 L 9.976562 -21.695312 L 5.144531 -21.695312 L 5.144531 -14.984375 L 8.621094 -14.984375 L 8.621094 -10.882812 L 5.144531 -10.882812 L 5.144531 -3.859375 L 9.976562 -3.859375 L 9.976562 0 L 1.390625 0 Z M 1.390625 -25.550781 "/></g></g></g><g fill="#333632" fill-opacity="1"><g transform="translate(182.047323, 329.70488)"><g/></g></g><g fill="#333632" fill-opacity="1"><g transform="translate(192.268002, 329.70488)"><g><path d="M 1.390625 0 L 1.390625 -25.550781 L 4.691406 -25.550781 C 6.917969 -25.550781 8.65625 -25.136719 9.804688 -24.058594 C 10.949219 -22.980469 11.542969 -21.3125 11.542969 -18.773438 C 11.542969 -17.554688 11.4375 -16.652344 11.054688 -15.816406 C 10.671875 -14.984375 10.082031 -14.289062 9.210938 -13.488281 C 10.152344 -12.96875 10.847656 -11.992188 11.402344 -10.359375 C 11.679688 -9.558594 11.820312 -8.515625 11.820312 -7.230469 C 11.820312 -5.320312 11.472656 -3.617188 10.601562 -2.292969 C 9.734375 -0.972656 8.238281 -0.105469 6.015625 0 Z M 5.144531 -15.019531 C 5.457031 -15.019531 6.1875 -14.984375 6.8125 -15.402344 C 7.441406 -15.816406 7.925781 -16.652344 7.925781 -18.425781 C 7.925781 -20.199219 7.441406 -21.03125 6.8125 -21.449219 C 6.1875 -21.867188 5.457031 -21.832031 5.144531 -21.832031 Z M 5.144531 -3.71875 C 5.457031 -3.71875 6.1875 -3.648438 6.8125 -4.101562 C 7.441406 -4.554688 7.925781 -5.5625 7.925781 -7.648438 C 7.925781 -9.734375 7.441406 -10.742188 6.8125 -11.195312 C 6.1875 -11.644531 5.457031 -11.578125 5.144531 -11.578125 Z M 5.144531 -3.71875 "/></g></g></g><g fill="#333632" fill-opacity="1"><g transform="translate(209.788634, 329.70488)"><g><path d="M 1.390625 -25.550781 L 5.144531 -25.550781 L 5.144531 0 L 1.390625 0 Z M 1.390625 -25.550781 "/></g></g></g><g fill="#333632" fill-opacity="1"><g transform="translate(221.191216, 329.70488)"><g><path d="M 8.101562 0 L 6.152344 -10.777344 L 5.144531 -10.777344 L 5.144531 0 L 1.390625 0 L 1.390625 -25.550781 L 5.144531 -25.550781 C 9.628906 -25.550781 11.542969 -23.015625 11.542969 -18.183594 C 11.542969 -15.644531 10.882812 -13.351562 9.457031 -12.375 L 11.855469 0 Z M 5.144531 -14.253906 C 5.667969 -14.253906 6.363281 -14.324219 6.917969 -14.808594 C 7.472656 -15.296875 7.925781 -16.234375 7.925781 -18.042969 C 7.925781 -19.851562 7.472656 -20.824219 6.917969 -21.3125 C 6.363281 -21.796875 5.667969 -21.832031 5.144531 -21.832031 Z M 5.144531 -14.253906 "/></g></g></g><g fill="#333632" fill-opacity="1"><g transform="translate(238.607562, 329.70488)"><g><path d="M 1.390625 0 L 1.390625 -25.550781 L 4.34375 -25.550781 C 7.820312 -25.550781 9.699219 -24.855469 10.707031 -22.910156 C 11.679688 -20.964844 11.820312 -17.765625 11.820312 -12.757812 C 11.820312 -7.753906 11.679688 -4.589844 10.707031 -2.640625 C 9.699219 -0.695312 7.820312 0 4.34375 0 Z M 5.144531 -3.753906 C 6.429688 -3.753906 7.160156 -3.894531 7.542969 -5.144531 C 7.71875 -5.734375 7.855469 -6.640625 7.890625 -7.855469 C 7.925781 -9.074219 7.925781 -10.707031 7.925781 -12.792969 C 7.925781 -14.878906 7.925781 -16.511719 7.890625 -17.730469 C 7.855469 -18.914062 7.71875 -19.816406 7.542969 -20.441406 C 7.160156 -21.660156 6.429688 -21.796875 5.144531 -21.796875 Z M 5.144531 -3.753906 "/></g></g></g><g fill="#38b6ff" fill-opacity="1"><g transform="translate(142.023495, 294.271944)"><g><path d="M 8.421875 -2.4375 L 8.046875 -1.34375 C 7.691406 -0.300781 7.019531 0.21875 6.03125 0.21875 C 5.46875 0.21875 5.066406 0.0507812 4.828125 -0.28125 C 4.691406 -0.476562 4.625 -0.71875 4.625 -1 C 4.625 -1.320312 4.707031 -1.71875 4.875 -2.1875 L 6.234375 -6.25 C 6.316406 -6.53125 6.359375 -6.75 6.359375 -6.90625 C 6.359375 -7.132812 6.265625 -7.25 6.078125 -7.25 C 5.773438 -7.25 5.410156 -6.941406 4.984375 -6.328125 C 4.554688 -5.710938 4.125 -4.90625 3.6875 -3.90625 C 3.257812 -2.90625 2.882812 -1.851562 2.5625 -0.75 L 2.375 0 L 0.234375 0 L 2.0625 -6.515625 C 2.125 -6.691406 2.15625 -6.851562 2.15625 -7 C 2.15625 -7.175781 2.070312 -7.265625 1.90625 -7.265625 C 1.707031 -7.265625 1.535156 -7.175781 1.390625 -7 C 1.242188 -6.820312 1.09375 -6.515625 0.9375 -6.078125 L 0.640625 -5.3125 L 0.359375 -5.3125 L 0.765625 -6.453125 C 0.960938 -7.003906 1.21875 -7.398438 1.53125 -7.640625 C 1.851562 -7.878906 2.25 -8 2.71875 -8 C 3.582031 -8 4.015625 -7.585938 4.015625 -6.765625 C 4.015625 -6.484375 3.972656 -6.191406 3.890625 -5.890625 L 3.421875 -4.078125 C 3.835938 -5.097656 4.234375 -5.890625 4.609375 -6.453125 C 4.984375 -7.023438 5.363281 -7.425781 5.75 -7.65625 C 6.132812 -7.882812 6.566406 -8 7.046875 -8 C 7.953125 -8 8.40625 -7.597656 8.40625 -6.796875 C 8.40625 -6.492188 8.335938 -6.140625 8.203125 -5.734375 L 6.71875 -1.28125 C 6.664062 -1.101562 6.640625 -0.957031 6.640625 -0.84375 C 6.640625 -0.632812 6.734375 -0.53125 6.921875 -0.53125 C 7.078125 -0.53125 7.234375 -0.613281 7.390625 -0.78125 C 7.546875 -0.957031 7.707031 -1.269531 7.875 -1.71875 L 8.140625 -2.4375 Z M 8.421875 -2.4375 "/></g></g></g><g fill="#38b6ff" fill-opacity="1"><g transform="translate(154.639549, 294.271944)"><g><path d="M 7.0625 -6.8125 C 7.0625 -5.976562 6.59375 -5.25 5.65625 -4.625 C 4.71875 -4 3.628906 -3.519531 2.390625 -3.1875 C 2.335938 -2.84375 2.3125 -2.5 2.3125 -2.15625 C 2.3125 -1.625 2.40625 -1.242188 2.59375 -1.015625 C 2.789062 -0.796875 3.082031 -0.6875 3.46875 -0.6875 C 3.78125 -0.6875 4.128906 -0.785156 4.515625 -0.984375 C 4.910156 -1.179688 5.296875 -1.5 5.671875 -1.9375 L 5.90625 -1.8125 C 5.550781 -1.25 5.066406 -0.769531 4.453125 -0.375 C 3.847656 0.0195312 3.164062 0.21875 2.40625 0.21875 C 1.71875 0.21875 1.148438 0.03125 0.703125 -0.34375 C 0.265625 -0.71875 0.046875 -1.242188 0.046875 -1.921875 C 0.046875 -2.804688 0.285156 -3.726562 0.765625 -4.6875 C 1.253906 -5.644531 1.914062 -6.4375 2.75 -7.0625 C 3.582031 -7.6875 4.492188 -8 5.484375 -8 C 5.953125 -8 6.332031 -7.894531 6.625 -7.6875 C 6.914062 -7.488281 7.0625 -7.195312 7.0625 -6.8125 Z M 5.15625 -7.71875 C 4.863281 -7.71875 4.53125 -7.507812 4.15625 -7.09375 C 3.789062 -6.6875 3.453125 -6.15625 3.140625 -5.5 C 2.828125 -4.84375 2.59375 -4.164062 2.4375 -3.46875 C 3.15625 -3.78125 3.707031 -4.117188 4.09375 -4.484375 C 4.5 -4.835938 4.816406 -5.25 5.046875 -5.71875 C 5.273438 -6.1875 5.390625 -6.6875 5.390625 -7.21875 C 5.390625 -7.414062 5.367188 -7.546875 5.328125 -7.609375 C 5.296875 -7.679688 5.238281 -7.71875 5.15625 -7.71875 Z M 5.15625 -7.71875 "/></g></g></g><g fill="#38b6ff" fill-opacity="1"><g transform="translate(165.236191, 294.271944)"><g><path d="M 9.453125 -5.390625 C 9.472656 -5.117188 9.484375 -4.921875 9.484375 -4.796875 C 9.484375 -3.984375 9.347656 -3.191406 9.078125 -2.421875 C 8.816406 -1.648438 8.421875 -1.015625 7.890625 -0.515625 C 7.367188 -0.0234375 6.734375 0.21875 5.984375 0.21875 C 5.179688 0.21875 4.609375 -0.0625 4.265625 -0.625 C 3.628906 -0.0625 2.890625 0.21875 2.046875 0.21875 C 1.398438 0.21875 0.898438 0.046875 0.546875 -0.296875 C 0.203125 -0.648438 0.03125 -1.09375 0.03125 -1.625 C 0.03125 -2.21875 0.242188 -2.816406 0.671875 -3.421875 C 1.109375 -4.035156 1.664062 -4.640625 2.34375 -5.234375 C 3.03125 -5.828125 3.929688 -6.539062 5.046875 -7.375 C 4.796875 -7.332031 4.566406 -7.253906 4.359375 -7.140625 C 4.160156 -7.023438 3.925781 -6.867188 3.65625 -6.671875 C 3.4375 -6.503906 3.25 -6.378906 3.09375 -6.296875 C 2.945312 -6.210938 2.796875 -6.171875 2.640625 -6.171875 C 2.492188 -6.171875 2.332031 -6.21875 2.15625 -6.3125 C 2.007812 -6.40625 1.878906 -6.453125 1.765625 -6.453125 C 1.628906 -6.453125 1.515625 -6.394531 1.421875 -6.28125 C 1.335938 -6.175781 1.253906 -5.992188 1.171875 -5.734375 L 1.046875 -5.328125 L 0.75 -5.328125 L 1.078125 -6.421875 C 1.265625 -6.992188 1.476562 -7.394531 1.71875 -7.625 C 1.957031 -7.851562 2.222656 -7.96875 2.515625 -7.96875 C 2.640625 -7.96875 2.75 -7.953125 2.84375 -7.921875 C 2.945312 -7.890625 3.070312 -7.835938 3.21875 -7.765625 C 3.238281 -7.753906 3.3125 -7.722656 3.4375 -7.671875 C 3.5625 -7.617188 3.691406 -7.582031 3.828125 -7.5625 C 3.960938 -7.539062 4.097656 -7.53125 4.234375 -7.53125 C 4.648438 -7.53125 5.035156 -7.632812 5.390625 -7.84375 L 5.5625 -8.125 L 5.875 -7.96875 C 4.832031 -6.90625 3.984375 -5.800781 3.328125 -4.65625 C 2.671875 -3.519531 2.34375 -2.488281 2.34375 -1.5625 C 2.34375 -1.1875 2.398438 -0.90625 2.515625 -0.71875 C 2.640625 -0.539062 2.835938 -0.453125 3.109375 -0.453125 C 3.460938 -0.453125 3.8125 -0.582031 4.15625 -0.84375 C 4.039062 -1.113281 3.984375 -1.453125 3.984375 -1.859375 C 3.984375 -2.441406 4.113281 -3.007812 4.375 -3.5625 C 4.644531 -4.113281 4.972656 -4.554688 5.359375 -4.890625 C 5.742188 -5.234375 6.09375 -5.40625 6.40625 -5.40625 C 6.789062 -5.40625 6.984375 -5.078125 6.984375 -4.421875 C 6.984375 -3.878906 6.875 -3.347656 6.65625 -2.828125 C 6.4375 -2.316406 6.113281 -1.84375 5.6875 -1.40625 C 5.9375 -0.9375 6.316406 -0.703125 6.828125 -0.703125 C 7.328125 -0.703125 7.753906 -0.898438 8.109375 -1.296875 C 8.460938 -1.703125 8.722656 -2.207031 8.890625 -2.8125 C 9.066406 -3.414062 9.15625 -4.023438 9.15625 -4.640625 C 9.15625 -4.859375 9.148438 -5.019531 9.140625 -5.125 C 8.578125 -5.34375 8.101562 -5.609375 7.71875 -5.921875 C 7.34375 -6.234375 7.15625 -6.632812 7.15625 -7.125 C 7.15625 -7.375 7.234375 -7.582031 7.390625 -7.75 C 7.554688 -7.914062 7.773438 -8 8.046875 -8 C 8.515625 -8 8.851562 -7.734375 9.0625 -7.203125 C 9.28125 -6.671875 9.410156 -6.066406 9.453125 -5.390625 Z M 6.375 -5.078125 C 6.25 -5.078125 6.109375 -4.957031 5.953125 -4.71875 C 5.804688 -4.476562 5.679688 -4.164062 5.578125 -3.78125 C 5.472656 -3.394531 5.421875 -3 5.421875 -2.59375 C 5.421875 -2.257812 5.46875 -1.957031 5.5625 -1.6875 C 5.894531 -2.070312 6.15625 -2.5 6.34375 -2.96875 C 6.539062 -3.4375 6.640625 -3.90625 6.640625 -4.375 C 6.640625 -4.84375 6.550781 -5.078125 6.375 -5.078125 Z M 6.375 -5.078125 "/></g></g></g><g fill="#38b6ff" fill-opacity="1"><g transform="translate(179.012654, 294.271944)"><g/></g></g><g fill="#38b6ff" fill-opacity="1"><g transform="translate(186.384259, 294.271944)"><g><path d="M 1.109375 -0.21875 C 1.265625 -0.144531 1.460938 -0.109375 1.703125 -0.109375 C 2.085938 -0.109375 2.394531 -0.222656 2.625 -0.453125 C 2.851562 -0.679688 2.96875 -1 2.96875 -1.40625 C 2.96875 -1.726562 2.894531 -2.054688 2.75 -2.390625 C 2.613281 -2.734375 2.40625 -3.125 2.125 -3.5625 C 2.082031 -3.625 1.960938 -3.800781 1.765625 -4.09375 C 1.578125 -4.394531 1.429688 -4.6875 1.328125 -4.96875 C 1.234375 -5.25 1.1875 -5.523438 1.1875 -5.796875 C 1.1875 -6.441406 1.429688 -6.96875 1.921875 -7.375 C 2.410156 -7.789062 3.082031 -8 3.9375 -8 C 4.59375 -8 5.140625 -7.878906 5.578125 -7.640625 C 6.015625 -7.410156 6.234375 -7.007812 6.234375 -6.4375 C 6.234375 -6.15625 6.148438 -5.898438 5.984375 -5.671875 C 5.828125 -5.441406 5.601562 -5.328125 5.3125 -5.328125 C 5.0625 -5.328125 4.859375 -5.421875 4.703125 -5.609375 C 4.554688 -5.796875 4.484375 -6.035156 4.484375 -6.328125 C 4.484375 -6.578125 4.523438 -6.8125 4.609375 -7.03125 C 4.703125 -7.25 4.816406 -7.429688 4.953125 -7.578125 C 4.816406 -7.660156 4.640625 -7.703125 4.421875 -7.703125 C 4.054688 -7.703125 3.769531 -7.585938 3.5625 -7.359375 C 3.351562 -7.140625 3.242188 -6.828125 3.234375 -6.421875 C 3.234375 -6.148438 3.285156 -5.90625 3.390625 -5.6875 C 3.503906 -5.46875 3.6875 -5.15625 3.9375 -4.75 L 4.140625 -4.4375 C 4.460938 -3.90625 4.691406 -3.46875 4.828125 -3.125 C 4.960938 -2.78125 5.03125 -2.4375 5.03125 -2.09375 C 5.03125 -1.65625 4.914062 -1.257812 4.6875 -0.90625 C 4.457031 -0.5625 4.128906 -0.285156 3.703125 -0.078125 C 3.273438 0.117188 2.773438 0.21875 2.203125 0.21875 C 1.484375 0.21875 0.890625 0.078125 0.421875 -0.203125 C -0.046875 -0.484375 -0.28125 -0.925781 -0.28125 -1.53125 C -0.28125 -1.832031 -0.203125 -2.085938 -0.046875 -2.296875 C 0.0976562 -2.515625 0.300781 -2.625 0.5625 -2.625 C 0.820312 -2.625 1.03125 -2.507812 1.1875 -2.28125 C 1.34375 -2.0625 1.421875 -1.785156 1.421875 -1.453125 C 1.421875 -1.222656 1.394531 -1.019531 1.34375 -0.84375 C 1.289062 -0.675781 1.210938 -0.46875 1.109375 -0.21875 Z M 1.109375 -0.21875 "/></g></g></g><g fill="#38b6ff" fill-opacity="1"><g transform="translate(196.242462, 294.271944)"><g><path d="M 2.46875 -1.28125 C 2.4375 -1.175781 2.421875 -1.078125 2.421875 -0.984375 C 2.421875 -0.828125 2.460938 -0.710938 2.546875 -0.640625 C 2.628906 -0.566406 2.738281 -0.53125 2.875 -0.53125 C 3.101562 -0.53125 3.316406 -0.632812 3.515625 -0.84375 C 3.722656 -1.0625 3.910156 -1.390625 4.078125 -1.828125 L 4.296875 -2.4375 L 4.578125 -2.4375 L 4.28125 -1.5625 C 3.882812 -0.375 3.128906 0.21875 2.015625 0.21875 C 1.503906 0.21875 1.117188 0.0820312 0.859375 -0.1875 C 0.609375 -0.457031 0.484375 -0.820312 0.484375 -1.28125 C 0.484375 -1.570312 0.53125 -1.875 0.625 -2.1875 L 2.140625 -7.5 L 0.78125 -7.5 L 0.859375 -7.796875 L 2.234375 -7.796875 L 2.875 -10.046875 C 3.726562 -10.054688 4.457031 -10.125 5.0625 -10.25 L 4.359375 -7.796875 L 6.0625 -7.796875 L 6.015625 -7.5 L 4.265625 -7.5 Z M 2.46875 -1.28125 "/></g></g></g><g fill="#38b6ff" fill-opacity="1"><g transform="translate(205.090954, 294.271944)"><g><path d="M 7.46875 -2.4375 L 7.75 -2.4375 L 7.375 -1.34375 C 7.175781 -0.78125 6.894531 -0.378906 6.53125 -0.140625 C 6.175781 0.0976562 5.796875 0.21875 5.390625 0.21875 C 4.859375 0.21875 4.484375 0.0625 4.265625 -0.25 C 4.128906 -0.4375 4.0625 -0.691406 4.0625 -1.015625 C 4.0625 -1.273438 4.101562 -1.570312 4.1875 -1.90625 C 3.84375 -1.15625 3.460938 -0.613281 3.046875 -0.28125 C 2.628906 0.0507812 2.171875 0.21875 1.671875 0.21875 C 1.117188 0.21875 0.695312 0.0546875 0.40625 -0.265625 C 0.125 -0.597656 -0.015625 -1.054688 -0.015625 -1.640625 C -0.015625 -2.535156 0.222656 -3.484375 0.703125 -4.484375 C 1.179688 -5.484375 1.785156 -6.316406 2.515625 -6.984375 C 3.253906 -7.660156 3.972656 -8 4.671875 -8 C 4.941406 -8 5.160156 -7.921875 5.328125 -7.765625 C 5.492188 -7.609375 5.59375 -7.367188 5.625 -7.046875 L 5.828125 -7.78125 C 6.640625 -7.789062 7.367188 -7.863281 8.015625 -8 L 6.046875 -1.28125 C 5.992188 -1.113281 5.96875 -0.972656 5.96875 -0.859375 C 5.96875 -0.640625 6.0625 -0.53125 6.25 -0.53125 C 6.601562 -0.53125 6.914062 -0.925781 7.1875 -1.71875 Z M 5.453125 -6.453125 C 5.460938 -6.503906 5.46875 -6.578125 5.46875 -6.671875 C 5.46875 -6.929688 5.425781 -7.125 5.34375 -7.25 C 5.257812 -7.382812 5.128906 -7.453125 4.953125 -7.453125 C 4.617188 -7.453125 4.234375 -7.144531 3.796875 -6.53125 C 3.359375 -5.914062 2.984375 -5.144531 2.671875 -4.21875 C 2.367188 -3.289062 2.21875 -2.394531 2.21875 -1.53125 C 2.21875 -1.207031 2.25 -0.972656 2.3125 -0.828125 C 2.375 -0.679688 2.484375 -0.609375 2.640625 -0.609375 C 2.859375 -0.609375 3.097656 -0.757812 3.359375 -1.0625 C 3.628906 -1.363281 3.894531 -1.800781 4.15625 -2.375 C 4.425781 -2.957031 4.664062 -3.648438 4.875 -4.453125 L 4.796875 -4.09375 Z M 5.453125 -6.453125 "/></g></g></g><g fill="#38b6ff" fill-opacity="1"><g transform="translate(217.028857, 294.271944)"><g><path d="M 6.28125 -8 C 6.664062 -8 6.96875 -7.882812 7.1875 -7.65625 C 7.40625 -7.4375 7.515625 -7.144531 7.515625 -6.78125 C 7.515625 -6.351562 7.375 -5.984375 7.09375 -5.671875 C 6.8125 -5.367188 6.472656 -5.21875 6.078125 -5.21875 C 5.785156 -5.21875 5.554688 -5.296875 5.390625 -5.453125 C 5.234375 -5.609375 5.15625 -5.832031 5.15625 -6.125 C 5.15625 -6.476562 5.273438 -6.796875 5.515625 -7.078125 C 5.753906 -7.367188 6.050781 -7.550781 6.40625 -7.625 C 6.382812 -7.625 6.351562 -7.628906 6.3125 -7.640625 C 6.269531 -7.660156 6.238281 -7.671875 6.21875 -7.671875 C 5.695312 -7.671875 5.171875 -7.296875 4.640625 -6.546875 C 4.109375 -5.804688 3.566406 -4.484375 3.015625 -2.578125 L 2.359375 0 L 0.21875 0 L 2.0625 -6.515625 C 2.113281 -6.671875 2.140625 -6.828125 2.140625 -6.984375 C 2.140625 -7.171875 2.0625 -7.265625 1.90625 -7.265625 C 1.707031 -7.265625 1.53125 -7.171875 1.375 -6.984375 C 1.226562 -6.804688 1.078125 -6.503906 0.921875 -6.078125 L 0.640625 -5.3125 L 0.34375 -5.3125 L 0.75 -6.453125 C 1.125 -7.484375 1.816406 -8 2.828125 -8 C 3.609375 -8 4 -7.59375 4 -6.78125 C 4 -6.488281 3.957031 -6.191406 3.875 -5.890625 L 3.75 -5.40625 C 4.125 -6.363281 4.503906 -7.035156 4.890625 -7.421875 C 5.273438 -7.804688 5.738281 -8 6.28125 -8 Z M 6.28125 -8 "/></g></g></g><g fill="#38b6ff" fill-opacity="1"><g transform="translate(227.640574, 294.271944)"><g><path d="M 2.46875 -1.28125 C 2.4375 -1.175781 2.421875 -1.078125 2.421875 -0.984375 C 2.421875 -0.828125 2.460938 -0.710938 2.546875 -0.640625 C 2.628906 -0.566406 2.738281 -0.53125 2.875 -0.53125 C 3.101562 -0.53125 3.316406 -0.632812 3.515625 -0.84375 C 3.722656 -1.0625 3.910156 -1.390625 4.078125 -1.828125 L 4.296875 -2.4375 L 4.578125 -2.4375 L 4.28125 -1.5625 C 3.882812 -0.375 3.128906 0.21875 2.015625 0.21875 C 1.503906 0.21875 1.117188 0.0820312 0.859375 -0.1875 C 0.609375 -0.457031 0.484375 -0.820312 0.484375 -1.28125 C 0.484375 -1.570312 0.53125 -1.875 0.625 -2.1875 L 2.140625 -7.5 L 0.78125 -7.5 L 0.859375 -7.796875 L 2.234375 -7.796875 L 2.875 -10.046875 C 3.726562 -10.054688 4.457031 -10.125 5.0625 -10.25 L 4.359375 -7.796875 L 6.0625 -7.796875 L 6.015625 -7.5 L 4.265625 -7.5 Z M 2.46875 -1.28125 "/></g></g></g></svg>